<?xml version="1.0" encoding="UTF-8"?><svg id="Layer_1" xmlns="http://www.w3.org/2000/svg" viewBox="0 0 1040 447.11"><defs><style>.cls-1{fill:#bca48b;}.cls-2{fill:#916828;}.cls-3{fill:#d5c3b1;}</style></defs><g id="Machine_Bottom"><path id="outer_border" class="cls-2" d="M1019.15,0v340.21c0,21.85-17.77,39.62-39.62,39.62h-178.33V0h-20.85v379.83h-14.23V0h-20.85v379.83H60.47c-21.85,0-39.62-17.77-39.62-39.62V0H0v340.21c0,33.34,27.13,60.47,60.47,60.47h1.23c1.69,25.88,23.22,46.43,49.51,46.43h29.44c26.29,0,47.82-20.55,49.51-46.43h663.7c1.69,25.88,23.22,46.43,49.51,46.43h29.44c26.34,0,47.9-20.63,49.52-46.57,32.04-1.48,57.66-27.93,57.66-60.33V0h-20.85Z"/><path id="innder_border" class="cls-2" d="M117.33,56.29h555.27c30.85,0,55.95-25.44,55.95-56.29h-20.85c0,19.35-15.75,35.44-35.1,35.44H117.33c-19.35,0-35.1-16.09-35.1-35.44h-20.85c0,30.85,25.1,56.29,55.95,56.29Z"/><g id="Returns"><rect class="cls-3" x="71.8" y="147.88" width="646.31" height="133.71"/><rect class="cls-1" x="71.8" y="147.88" width="646.31" height="74.08"/><rect class="cls-2" x="71.8" y="147.88" width="646.31" height="37.04"/><rect class="cls-3" x="831.85" y="134.74" width="151.75" height="146.85"/><path class="cls-1" d="M976.19,144.67v128.58h-128.58c70.98,0,128.58-57.55,128.58-128.58Z"/><path class="cls-2" d="M718.13,137.44H71.81c-5.76,0-10.43,4.67-10.43,10.43v133.73c0,5.76,4.67,10.43,10.43,10.43h646.32c5.76,0,10.43-4.67,10.43-10.43v-133.73c0-5.76-4.67-10.43-10.43-10.43ZM707.71,271.17H82.23v-112.88h625.47v112.88Z"/><path class="cls-2" d="M983.6,292.02h-151.75c-5.76,0-10.43-4.67-10.43-10.43v-146.85c0-5.76,4.67-10.43,10.43-10.43h151.75c5.76,0,10.43,4.67,10.43,10.43v146.85c0,5.76-4.67,10.43-10.43,10.43ZM842.28,271.17h130.89v-126h-130.89v126Z"/></g></g></svg>