<?xml version="1.0" encoding="UTF-8"?><svg id="Layer_1" xmlns="http://www.w3.org/2000/svg" viewBox="0 0 1040 123.92"><defs><style>.cls-1{fill:#916828;}.cls-2{fill:#683d16;}</style></defs><g id="Machine_Top"><path id="outer_border" class="cls-1" d="M979.53,0H60.47C27.13,0,0,27.13,0,60.47v63.44h20.85v-63.44c0-21.85,17.77-39.62,39.62-39.62h684.79v103.06h20.85V20.85h14.23v103.06h20.85V20.85h178.33c21.85,0,39.62,17.77,39.62,39.62v63.44h20.85v-63.44c0-33.34-27.13-60.47-60.47-60.47Z"/><path id="inner_border" class="cls-1" d="M672.61,67.97H117.33c-30.85,0-55.95,25.1-55.95,55.95h20.85c0-19.35,15.75-35.1,35.1-35.1h555.27c19.35,0,35.1,15.75,35.1,35.1h20.85c0-30.85-25.1-55.95-55.95-55.95Z"/><g id="text"><path class="cls-2" d="M214.35,52.23l-7.3-9.28v6.09c1.36.09,2.16.89,2.16,2.39s-.89,2.39-2.39,2.39h-3.96c-1.51,0-2.39-.89-2.39-2.39,0-1.42.68-2.19,1.89-2.36v-10.88c-1.21-.18-1.89-.95-1.89-2.39s.89-2.36,2.39-2.36h2.1c1.48,0,2.13.77,2.96,1.83l6.89,8.87v-5.91c-1.36-.09-2.16-.89-2.16-2.39s.89-2.39,2.39-2.39h3.96c1.51,0,2.39.89,2.39,2.39,0,1.39-.68,2.19-1.86,2.36v13.12c0,1.6-.8,2.75-2.22,2.75s-2.1-.74-2.96-1.83Z"/><path class="cls-2" d="M223.61,48.89v-6.44c-1.12-.24-1.68-.98-1.68-2.13,0-1.39.86-2.25,2.54-2.25h1.51c1.48,0,2.36.86,2.36,2.36v6.8c0,1.51.8,2.39,2.25,2.39,1.8,0,2.96-1.48,2.96-2.93v-4.26h-.27c-1.68,0-2.54-.8-2.54-2.13s.86-2.25,2.54-2.25h2.6c1.51,0,2.36.86,2.36,2.36v8.13l.44,2.93c.21,1.33-.62,2.54-2.42,2.54-1.18,0-2.1-.59-2.19-1.98l-.21-2.81h-.18c-.56,4.08-3.16,4.94-5.2,4.94-3.01,0-4.88-1.98-4.88-5.29Z"/><path class="cls-2" d="M243,48.98v-6.62h-1.36c-1.24,0-1.95-.89-1.95-2.13s.74-2.16,1.95-2.16h1.36v-1.71c0-1.39.95-2.16,2.36-2.16,1.54,0,2.31.92,2.31,2.16v1.71h2.75c1.21,0,1.95.92,1.95,2.16s-.74,2.13-1.95,2.13h-2.75v5.67c0,1.21.53,1.74,1.39,1.74,1.21,0,1.63-.83,2.45-.83.71,0,1.27.5,1.27,1.71,0,2.22-2.48,3.49-5.14,3.49-2.84,0-4.64-1.68-4.64-5.17Z"/><path class="cls-2" d="M256.6,48.98v-6.62h-1.36c-1.24,0-1.95-.89-1.95-2.13s.74-2.16,1.95-2.16h1.36v-1.71c0-1.39.95-2.16,2.36-2.16,1.54,0,2.31.92,2.31,2.16v1.71h2.75c1.21,0,1.95.92,1.95,2.16s-.74,2.13-1.95,2.13h-2.75v5.67c0,1.21.53,1.74,1.39,1.74,1.21,0,1.63-.83,2.45-.83.71,0,1.27.5,1.27,1.71,0,2.22-2.48,3.49-5.14,3.49-2.84,0-4.64-1.68-4.64-5.17Z"/><path class="cls-2" d="M267.12,56.1c0-1.18.8-2.28,1.95-2.28.33,0,.65.09.98.35.59.44,1.21,1.06,2.36,1.06,1.21,0,1.92-.65,2.33-1.89l.24-.68c-.18.03-.32.03-.47.03-1.03,0-2.16-.56-2.6-1.98l-2.84-8.19c-1.42-.06-2.22-.89-2.22-2.25s.89-2.22,2.39-2.22h3.02c1.51,0,2.39.86,2.39,2.22,0,1-.44,1.68-1.21,2.04l2.16,6.77h.38l2.13-6.68c-.98-.3-1.51-1.03-1.51-2.13,0-1.36.89-2.22,2.42-2.22h3.04c1.51,0,2.39.86,2.39,2.22s-.74,2.1-2.01,2.22l-3.96,10.94c-1,2.75-2.57,6.41-6.65,6.41-2.69,0-4.73-1.71-4.73-3.75Z"/><path class="cls-2" d="M306.2,52.23l-7.3-9.28v6.09c1.36.09,2.16.89,2.16,2.39s-.89,2.39-2.39,2.39h-3.96c-1.51,0-2.39-.89-2.39-2.39,0-1.42.68-2.19,1.89-2.36v-10.88c-1.21-.18-1.89-.95-1.89-2.39s.89-2.36,2.39-2.36h2.1c1.48,0,2.13.77,2.96,1.83l6.89,8.87v-5.91c-1.36-.09-2.16-.89-2.16-2.39s.89-2.39,2.39-2.39h3.96c1.51,0,2.39.89,2.39,2.39,0,1.39-.68,2.19-1.86,2.36v13.12c0,1.6-.8,2.75-2.22,2.75s-2.1-.74-2.96-1.83Z"/><path class="cls-2" d="M313.98,49.25c0-2.78,1.98-4.64,5.56-4.64,2.22,0,3.72.86,4.29,2.1h.12v-1.83c0-1.66-1.03-2.69-2.99-2.69-1.74,0-2.39.5-2.93,1.18-.44.56-.71,1.12-1.66,1.12-1.18,0-1.95-.92-1.95-2.16,0-2.84,2.99-4.58,6.8-4.58,4.32,0,7.39,1.86,7.39,6.24v5.41c1.12.24,1.74.95,1.74,2.16,0,1.42-.92,2.28-2.54,2.28h-.92c-1.33,0-2.33-.53-2.54-1.89l-.24-1.48h-.15c-.44,2.54-2.36,3.67-4.97,3.67-3.25,0-5.02-2.01-5.02-4.88ZM324.06,48.89c0-1-1.15-1.6-2.84-1.6-1.54,0-2.6.44-2.6,1.65,0,1.33,1.06,1.74,2.57,1.74,1.68,0,2.87-.77,2.87-1.8Z"/><path class="cls-2" d="M331.57,51.58c0-1.33.77-2.13,1.98-2.22v-6.86c-1.27-.15-1.98-.95-1.98-2.19,0-1.39.89-2.25,2.42-2.25h1.6c1.18,0,2.16.62,2.25,2.25l.09,2.51.38.03c-.03-3.25,1.63-5,3.52-5,1.27,0,2.22.92,2.22,2.6,0,1.89-1.12,3.34-2.81,3.1-2.16-.15-2.99,1.51-2.99,3.13v2.69c1.3.12,2.01.92,2.01,2.19,0,1.42-.86,2.25-2.36,2.25h-3.9c-1.54,0-2.42-.83-2.42-2.25Z"/><path class="cls-2" d="M345.08,51.58c0-1.33.77-2.13,1.98-2.22v-6.86c-1.27-.15-1.98-.95-1.98-2.19,0-1.39.89-2.25,2.42-2.25h1.6c1.18,0,2.16.62,2.25,2.25l.09,2.51.38.03c-.03-3.25,1.63-5,3.52-5,1.27,0,2.22.92,2.22,2.6,0,1.89-1.12,3.34-2.81,3.1-2.16-.15-2.99,1.51-2.99,3.13v2.69c1.3.12,2.01.92,2.01,2.19,0,1.42-.86,2.25-2.36,2.25h-3.9c-1.54,0-2.42-.83-2.42-2.25Z"/><path class="cls-2" d="M358.12,45.94c0-4.82,2.69-8.22,7.95-8.22s7.98,3.4,7.98,8.19-2.69,8.25-7.95,8.25-7.98-3.4-7.98-8.22ZM369.7,45.94c0-2.57-1.39-3.84-3.61-3.84s-3.64,1.27-3.64,3.84,1.39,3.84,3.64,3.84,3.61-1.27,3.61-3.84Z"/><path class="cls-2" d="M378.69,51.43l-2.16-8.93c-1.21-.15-1.92-.95-1.92-2.19,0-1.39.89-2.25,2.42-2.25h2.84c1.54,0,2.39.86,2.39,2.25,0,1.09-.53,1.83-1.51,2.1l1.42,6.47h.24l1.51-8.25c.33-1.8,1.12-2.78,2.96-2.78s2.6.98,2.96,2.78l1.57,8.25h.18l1.42-6.47c-.95-.27-1.51-1-1.51-2.1,0-1.39.89-2.25,2.39-2.25h2.9c1.51,0,2.36.86,2.36,2.25,0,1.21-.65,2.01-1.83,2.19l-2.22,8.93c-.5,2.04-1.98,2.72-3.43,2.72-1.33,0-2.96-.68-3.43-3.1l-1.24-6.24h-.24l-1.24,6.21c-.5,2.48-2.07,3.13-3.4,3.13-1.45,0-2.96-.77-3.43-2.72Z"/><path class="cls-2" d="M403.29,50.93h-.18v1.51c0,.86-.47,1.63-1.51,1.63s-1.48-.77-1.48-1.63v-3.43c0-1.09.5-1.74,1.45-1.74.77,0,1.21.33,1.63,1.09.59,1.06,1.57,1.71,3.96,1.71s3.04-.47,3.04-1.24c0-2.19-9.66.77-9.66-6.06,0-3.19,2.25-5.02,5.67-5.02s4.76,1.6,4.94,3.93h.12v-2.22c0-.86.47-1.6,1.48-1.6s1.51.74,1.51,1.6v3.28c0,1.06-.65,1.68-1.42,1.68-.68,0-1.12-.24-1.51-1-.53-1.06-1.68-1.54-3.49-1.54-1.66,0-2.93.21-2.93,1.12,0,2.39,9.69-.44,9.69,5.7,0,3.75-2.84,5.44-6.06,5.44s-4.67-1.6-5.26-3.22Z"/><path class="cls-2" d="M427.44,51.43c0-1.45.74-2.25,2.01-2.36v-10.85h-2.81v1.77c0,1.12-.62,1.98-1.8,1.98s-1.74-.86-1.74-1.98v-4.76c0-1.12.53-1.8,1.83-1.8h13.92c1.27,0,1.83.68,1.83,1.8v4.76c0,1.12-.62,1.98-1.74,1.98-1.18,0-1.8-.86-1.8-1.98v-1.77h-2.84v10.85c1.3.12,2.04.89,2.04,2.36s-.89,2.39-2.39,2.39h-4.11c-1.51,0-2.39-.89-2.39-2.39Z"/><path class="cls-2" d="M442.4,51.58c0-1.18.62-1.95,1.8-2.19v-11.41c-1.36-.09-2.16-.8-2.16-2.33,0-1.39.89-2.22,2.39-2.22h2.16c1.48,0,2.33.86,2.33,2.33v1.83c0,.83-.15,3.02-.56,5.08h.38c.56-4.11,3.16-4.97,5.2-4.97,3.01,0,4.88,1.98,4.88,5.32v6.41c1.18.21,1.8.95,1.8,2.13,0,1.42-.86,2.25-2.39,2.25h-3.34c-1.51,0-2.39-.89-2.39-2.39,0-.5.35-1.66,1.63-1.98v-4.76c0-1.51-.8-2.39-2.28-2.39-1.8,0-2.96,1.48-2.96,2.93v4.14c1.06.24,1.66,1.09,1.66,2.22,0,1.42-.89,2.25-2.39,2.25h-3.37c-1.51,0-2.39-.83-2.39-2.25Z"/><path class="cls-2" d="M461.76,51.58c0-1.33.77-2.13,1.98-2.22v-6.86c-1.27-.15-1.98-.95-1.98-2.19,0-1.39.89-2.25,2.42-2.25h1.6c1.18,0,2.16.62,2.25,2.25l.09,2.51.38.03c-.03-3.25,1.63-5,3.52-5,1.27,0,2.22.92,2.22,2.6,0,1.89-1.12,3.34-2.81,3.1-2.16-.15-2.99,1.51-2.99,3.13v2.69c1.3.12,2.01.92,2.01,2.19,0,1.42-.86,2.25-2.36,2.25h-3.9c-1.54,0-2.42-.83-2.42-2.25Z"/><path class="cls-2" d="M475.33,51.58c0-1.18.68-1.98,1.83-2.19v-6.89c-1.33-.21-1.86-1.09-1.86-2.1,0-1.12.68-2.33,2.42-2.33h2.1c1.15,0,2.01.77,2.01,2.31v9.01c1.15.21,1.83,1,1.83,2.19,0,1.42-.89,2.25-2.39,2.25h-3.55c-1.51,0-2.39-.83-2.39-2.25ZM476.45,34.06c0-1.39.77-2.39,2.69-2.39s2.66,1,2.66,2.39-.77,2.39-2.66,2.39-2.69-.98-2.69-2.39Z"/><path class="cls-2" d="M485.06,51.58c0-1.27.74-2.04,1.98-2.19v-7.03h-.8c-.95,0-1.89-.86-1.89-2.16s.95-2.13,1.89-2.13h.8v-.38c0-3.34,2.33-5,5.41-5,2.31,0,3.75.92,3.75,2.51,0,1.03-.56,1.71-1.36,1.71-.47,0-1.06-.35-1.92-.35-.92,0-1.42.35-1.42,1.12v.38h1.71c1.21,0,2.07.8,2.07,2.13s-.86,2.16-2.07,2.16h-1.48v7.03c1.3.12,2.04.92,2.04,2.19,0,1.42-.89,2.25-2.39,2.25h-3.93c-1.51,0-2.39-.83-2.39-2.25Z"/><path class="cls-2" d="M499.25,48.98v-6.62h-1.36c-1.24,0-1.95-.89-1.95-2.13s.74-2.16,1.95-2.16h1.36v-1.71c0-1.39.95-2.16,2.36-2.16,1.54,0,2.31.92,2.31,2.16v1.71h2.75c1.21,0,1.95.92,1.95,2.16s-.74,2.13-1.95,2.13h-2.75v5.67c0,1.21.53,1.74,1.39,1.74,1.21,0,1.63-.83,2.45-.83.71,0,1.27.5,1.27,1.71,0,2.22-2.48,3.49-5.14,3.49-2.84,0-4.64-1.68-4.64-5.17Z"/><path class="cls-2" d="M520.98,49.69v2.6c0,.89-.65,1.74-1.74,1.74s-1.74-.86-1.74-1.74v-3.99c0-1.69.77-2.42,1.95-2.42,2.51,0,2.72,3.55,7.33,3.55,2.28,0,3.31-.74,3.31-2.01,0-1.45-2.42-1.54-4.85-1.8-3.07-.38-7.24-1.12-7.24-6,0-4.23,2.93-6.5,7.12-6.5,3.49,0,5.47,1.51,6.15,4.55v-2.36c0-1,.65-1.86,1.74-1.86s1.74.86,1.74,1.86v4.14c0,.95-.62,1.83-1.68,1.83-1.95,0-2.28-3.34-7-3.34-1.89,0-3.19.56-3.19,1.66,0,1.42,2.66,1.54,4.88,1.74,3.04.3,7.24.92,7.24,5.82s-3.19,7.03-7.3,7.03c-3.43,0-5.85-1.86-6.71-4.49Z"/><path class="cls-2" d="M537.09,51.58c0-1.18.62-1.95,1.8-2.19v-11.41c-1.36-.09-2.16-.8-2.16-2.33,0-1.39.89-2.22,2.39-2.22h2.16c1.48,0,2.33.86,2.33,2.33v1.83c0,.83-.15,3.02-.56,5.08h.38c.56-4.11,3.16-4.97,5.2-4.97,3.01,0,4.88,1.98,4.88,5.32v6.41c1.18.21,1.8.95,1.8,2.13,0,1.42-.86,2.25-2.39,2.25h-3.34c-1.51,0-2.39-.89-2.39-2.39,0-.5.35-1.66,1.63-1.98v-4.76c0-1.51-.8-2.39-2.28-2.39-1.8,0-2.96,1.48-2.96,2.93v4.14c1.06.24,1.65,1.09,1.65,2.22,0,1.42-.89,2.25-2.39,2.25h-3.37c-1.51,0-2.39-.83-2.39-2.25Z"/><path class="cls-2" d="M556.13,45.94c0-4.82,2.69-8.22,7.95-8.22s7.98,3.4,7.98,8.19-2.69,8.25-7.95,8.25-7.98-3.4-7.98-8.22ZM567.71,45.94c0-2.57-1.39-3.84-3.61-3.84s-3.64,1.27-3.64,3.84,1.39,3.84,3.64,3.84,3.61-1.27,3.61-3.84Z"/><path class="cls-2" d="M572.92,57.52c0-1.21.68-1.95,1.89-2.19v-12.86c-1.21-.24-1.8-1-1.8-2.19,0-1.36.86-2.22,2.54-2.22h1.15c1.36,0,2.16.62,2.22,1.8l.18,3.01h.27c.33-3.81,2.6-5.17,5.17-5.17,3.31,0,6,2.25,6,8.16s-2.87,8.31-6.09,8.31c-2.22,0-4.31-1.24-5-5.02h-.27c.12,1.92.24,4.34.27,6.18,1.21.18,1.92.92,1.92,2.19,0,1.39-.86,2.22-2.37,2.22h-3.66c-1.54,0-2.42-.83-2.42-2.22ZM585.95,45.91c0-2.07-1.06-3.52-3.25-3.52-2.54,0-3.37,1.92-3.37,3.61s.98,3.55,3.43,3.55c2.19,0,3.19-1.63,3.19-3.64Z"/></g></g></svg>